<svg id="Layer_1" data-name="Layer 1" xmlns="http://www.w3.org/2000/svg" viewBox="0 0 1920 1080"><defs><style>.cls-1{fill:#f4dbd8;}.cls-2{fill:#d64145;}.cls-3{fill:#f2ddd2;}.cls-4{fill:#6e44ff;}.cls-5{fill:#009ddc;}</style></defs><rect class="cls-1" width="1920" height="1080"/><path class="cls-2" d="M1182.93,398.91c-18.49-1.52-62.2-5-64-5.11-2.27-.15-6.93-1.12-8.7,4.64L1086.71,475c-3.93-4.15-11.09-6.73-19.15-6.35-12,.58-21.32,7.41-20.93,15.31s10.38,13.83,22.29,13.24c11.1-.54,20-6.47,20.88-13.64l17.81-57.93c1-3.19,2.16-7.32,11-6.54,4.05.36,59.34,4.74,59.34,4.74l-16.45,53.55c-3.92-4.23-11.14-6.87-19.29-6.47-12,.57-21.32,7.41-20.93,15.3s10.38,13.83,22.29,13.25c11-.53,19.78-6.37,20.86-13.44l.12,0,22.65-73.72c2.81-9.15,9.34-7.39,9.34-7.39l1.55-5-15.16-1Z" transform="translate(0 0)"/><circle class="cls-2" cx="1757.5" cy="935.5" r="101.5"/><circle class="cls-3" cx="1757" cy="936" r="29"/><rect class="cls-1" x="1809.07" y="853.85" width="17.14" height="98" transform="matrix(0.39, 0.92, -0.92, 0.39, 1943.86, -1122.75)"/><rect class="cls-1" x="1688.32" y="904.41" width="17.14" height="98" transform="translate(1916.58 -980.54) rotate(67.15)"/><path class="cls-4" d="M1727.44,235.11l-15.1,66.67a22.48,22.48,0,0,0,21.76-7.33,4.44,4.44,0,0,0,2.17,1.21l.92.21a4.81,4.81,0,0,0,4.17-1.11,6.69,6.69,0,0,0,2.13-3.6l1.21-5.36,1.82-8,11.38-50.22-2.47-.56a2.47,2.47,0,0,1-1.85-3c.07-.26.13-.54.19-.8a70.89,70.89,0,1,0-138.27-31.33l-.18.8a2.46,2.46,0,0,1-3,1.9l-2.47-.56-14.41,63.61a6.55,6.55,0,0,0,.37,4.16,4.79,4.79,0,0,0,3.28,2.8l.92.21a4.57,4.57,0,0,0,2.3-.08,22.51,22.51,0,0,0,16.46,15.87l15.11-66.67a22.49,22.49,0,0,0-18,3.86l4.3-18.95a4.77,4.77,0,0,0,4.66-3.32l.1-.21.16-.73a60.86,60.86,0,1,1,118.72,26.9l-.11.5v0a4.79,4.79,0,0,0,2.73,5.44l-4.35,19.18A22.46,22.46,0,0,0,1727.44,235.11Z" transform="translate(0 0)"/><path class="cls-4" d="M1755.43,227l2.47.56,2.2.5a2.47,2.47,0,0,0,3-1.82l.21-.87A80.62,80.62,0,1,0,1606,189.73c-.07.29-.13.58-.19.88a2.47,2.47,0,0,0,1.88,2.91l2.2.5,2.47.56a2.46,2.46,0,0,0,3-1.9l.18-.8a70.89,70.89,0,1,1,138.27,31.33c-.06.26-.12.54-.19.8A2.47,2.47,0,0,0,1755.43,227Z" transform="translate(0 0)"/><path class="cls-4" d="M1589.45,243.27a8.21,8.21,0,0,0,6.11,9.81l5.52-24.36a8.22,8.22,0,0,0-9.75,6.22Z" transform="translate(0 0)"/><path class="cls-4" d="M1745.4,287a8.22,8.22,0,0,0,9.75-6.22l1.88-8.32a8.22,8.22,0,0,0-6.11-9.82Z" transform="translate(0 0)"/><path class="cls-4" d="M1635.35,214.23l-15.16,66.9,8.08,1.83a2.34,2.34,0,0,0,2.81-1.77l14.12-62.32a2.33,2.33,0,0,0-1.77-2.8Z" transform="translate(0 0)"/><path class="cls-4" d="M1715,234.68,1700.88,297a2.34,2.34,0,0,0,1.76,2.8l8.09,1.83,15.16-66.89-8.09-1.83A2.33,2.33,0,0,0,1715,234.68Z" transform="translate(0 0)"/><circle class="cls-4" cx="1188" cy="667" r="51"/><circle class="cls-5" cx="1292" cy="233" r="88"/><path class="cls-4" d="M996.37,62.39c-14.28,11.85-48,39.93-49.31,41.08-1.73,1.47-5.74,4-3,9.4l36.73,71.23c-5.72-.22-12.64,2.94-18.14,8.85-8.14,8.76-10.06,20.2-4.26,25.58s17.09,2.62,25.19-6.12c7.56-8.15,9.77-18.6,5.4-24.35l-27.77-53.87c-1.53-3-3.58-6.75,3.29-12.37,3.15-2.58,45.74-38.1,45.74-38.1l25.68,49.79c-5.76-.28-12.76,2.88-18.32,8.86-8.14,8.76-10.06,20.2-4.26,25.58s17.09,2.62,25.19-6.12c7.51-8.08,9.7-18.39,5.53-24.19l.11-.06L1008.84,69c-4.38-8.5,1.51-11.81,1.51-11.81l-2.42-4.68-11.56,9.85Z" transform="translate(0 0)"/><circle class="cls-5" cx="1641.42" cy="547.7" r="101.5"/><circle class="cls-3" cx="1640.72" cy="547.6" r="29"/><rect class="cls-1" x="1694.88" y="527.62" width="17.14" height="98" transform="translate(3067.79 -595.04) rotate(120.64)"/><rect class="cls-1" x="1582.4" y="460.64" width="17.14" height="98" transform="translate(2840.35 -599.39) rotate(120.64)"/><path class="cls-2" d="M1483.65,802.54l30.56,61.15a22.51,22.51,0,0,0,12.19-19.46,4.54,4.54,0,0,0,2.45-.43l.84-.43a4.76,4.76,0,0,0,2.52-3.49,6.68,6.68,0,0,0-.63-4.14l-2.46-4.92-3.68-7.37-23-46.05-2.27,1.13a2.47,2.47,0,0,1-3.32-1.14c-.11-.24-.24-.5-.36-.74A70.89,70.89,0,1,0,1369.65,840c.12.25.25.5.38.74a2.47,2.47,0,0,1-1.09,3.34l-2.26,1.13,29.15,58.34a6.61,6.61,0,0,0,2.92,3,4.79,4.79,0,0,0,4.31.09l.85-.43a4.5,4.5,0,0,0,1.73-1.52,22.51,22.51,0,0,0,22.79,1.85l-30.55-61.15a22.5,22.5,0,0,0-11.48,14.38l-8.68-17.38a4.78,4.78,0,0,0,1.51-5.52l-.06-.23-.34-.67a60.87,60.87,0,0,1,108.9-54.41l.23.46v0a4.78,4.78,0,0,0,5.56,2.48l8.79,17.59A22.49,22.49,0,0,0,1483.65,802.54Z" transform="translate(0 0)"/><path class="cls-2" d="M1500.16,778.53l2.27-1.13,2-1a2.46,2.46,0,0,0,1.13-3.28l-.39-.81A80.62,80.62,0,0,0,1361,844.37c.13.27.27.53.41.8a2.46,2.46,0,0,0,3.29,1.07l2-1,2.26-1.13a2.47,2.47,0,0,0,1.09-3.34c-.13-.24-.26-.49-.38-.74a70.89,70.89,0,1,1,126.83-63.37c.12.24.25.5.36.74A2.47,2.47,0,0,0,1500.16,778.53Z" transform="translate(0 0)"/><path class="cls-2" d="M1382.06,896.29A8.22,8.22,0,0,0,1393,900l-11.16-22.35a8.22,8.22,0,0,0-3.6,11Z" transform="translate(0 0)"/><path class="cls-2" d="M1530.44,831.34a8.23,8.23,0,0,0,3.6-11l-3.81-7.64a8.23,8.23,0,0,0-11-3.72Z" transform="translate(0 0)"/><path class="cls-2" d="M1399.17,844.74l30.66,61.36,7.41-3.71a2.34,2.34,0,0,0,1.06-3.14l-28.57-57.17a2.34,2.34,0,0,0-3.14-1Z" transform="translate(0 0)"/><path class="cls-2" d="M1473.75,810.1l28.56,57.16a2.35,2.35,0,0,0,3.15,1l7.41-3.71-30.65-61.35L1474.8,807A2.33,2.33,0,0,0,1473.75,810.1Z" transform="translate(0 0)"/></svg>