<svg id="Layer_1" data-name="Layer 1" xmlns="http://www.w3.org/2000/svg" viewBox="0 0 512 512"><defs><style>.cls-1{fill:#f2ddd2;}.cls-2,.cls-5{fill:#021845;}.cls-2,.cls-3{stroke:#d64145;stroke-width:5px;}.cls-2,.cls-3,.cls-4,.cls-5{stroke-miterlimit:10;}.cls-3,.cls-8{fill:none;}.cls-4,.cls-6{fill:#d64145;}.cls-4,.cls-5{stroke:#ed1c24;}.cls-5{stroke-width:2px;}.cls-7{fill:#007ab8;}</style></defs><rect class="cls-1" width="512" height="512"/><rect class="cls-2" x="45.86" y="166.98" width="420.27" height="192.44"/><rect class="cls-3" x="53.19" y="218.16" width="140.97" height="131.9"/><rect class="cls-3" x="318.1" y="218.16" width="140.97" height="131.9"/><rect class="cls-2" x="201.76" y="218.16" width="107.63" height="131.9"/><rect class="cls-4" x="218.72" y="268.52" width="74.29" height="28.08"/><circle class="cls-5" cx="229.69" cy="282.56" r="7.46"/><circle class="cls-5" cx="255.35" cy="282.56" r="7.46"/><circle class="cls-5" cx="281.02" cy="282.56" r="7.46"/><circle class="cls-2" cx="72.65" cy="192.72" r="14.14"/><circle class="cls-2" cx="439.32" cy="192.72" r="14.14"/><rect class="cls-2" x="102.28" y="184.6" width="301.89" height="15.3"/><rect class="cls-6" x="318.1" y="184.6" width="19.06" height="15.3"/><path class="cls-6" d="M72.65,165.71a1.37,1.37,0,1,0,2.73,0V142.48a1.37,1.37,0,1,0-2.73,0Z" transform="translate(0 -0.1)"/><path class="cls-6" d="M73.27,142.48a1.36,1.36,0,0,0,1.37,1.36H97.87a1.37,1.37,0,1,0,0-2.73H74.64a1.37,1.37,0,0,0-1.37,1.37Z" transform="translate(0 -0.1)"/><rect class="cls-6" x="97.71" y="139.93" width="315.94" height="4.9" rx="2"/><path class="cls-6" d="M436.53,166.33a1.37,1.37,0,1,0,2.73,0V143.1a1.37,1.37,0,1,0-2.73,0Z" transform="translate(0 -0.1)"/><path class="cls-6" d="M412.68,143.1a1.36,1.36,0,0,0,1.36,1.36h23.24a1.37,1.37,0,0,0,0-2.73H414a1.36,1.36,0,0,0-1.36,1.37Z" transform="translate(0 -0.1)"/><circle class="cls-7" cx="123.67" cy="284.11" r="54.69"/><path class="cls-8" d="M138.81,231.66,71.12,299.35c.47,1.64,1,3.25,1.63,4.82l70.88-70.87Q141.28,232.37,138.81,231.66Z" transform="translate(0 -0.1)"/><path class="cls-8" d="M112.45,230.68,70.14,273a54.14,54.14,0,0,0-1,7.47l50.8-50.8A55.49,55.49,0,0,0,112.45,230.68Z" transform="translate(0 -0.1)"/><path class="cls-8" d="M134.89,337.75l42.32-42.32a55.48,55.48,0,0,0,1-7.47l-50.8,50.8A55.48,55.48,0,0,0,134.89,337.75Z" transform="translate(0 -0.1)"/><path class="cls-8" d="M73.52,262.39l28.33-28.33A54.81,54.81,0,0,0,73.52,262.39Z" transform="translate(0 -0.1)"/><path class="cls-8" d="M148.61,235.54,75,309.15c.72,1.4,1.5,2.78,2.34,4.11l75.38-75.38C151.39,237,150,236.26,148.61,235.54Z" transform="translate(0 -0.1)"/><path class="cls-8" d="M157,240.84,80.3,317.52c.93,1.21,1.91,2.39,2.94,3.52l77.26-77.26C159.37,242.75,158.19,241.78,157,240.84Z" transform="translate(0 -0.1)"/><path class="cls-8" d="M177.56,275,114.4,338.11a55.24,55.24,0,0,0,5.78.67l58.06-58A52.13,52.13,0,0,0,177.56,275Z" transform="translate(0 -0.1)"/><path class="cls-8" d="M174.59,264.25l-70.88,70.88q2.36.93,4.82,1.63l67.69-67.69C175.75,267.43,175.2,265.82,174.59,264.25Z" transform="translate(0 -0.1)"/><path class="cls-8" d="M170,255.16,94.62,330.54q2,1.26,4.12,2.34l73.6-73.6Q171.26,257.17,170,255.16Z" transform="translate(0 -0.1)"/><path class="cls-8" d="M164.1,247.39,86.85,324.65c1.12,1,2.3,2,3.52,2.93L167,250.91C166.11,249.7,165.13,248.52,164.1,247.39Z" transform="translate(0 -0.1)"/><path class="cls-8" d="M127.16,229.64,69.1,287.7a54.94,54.94,0,0,0,.68,5.78l63.16-63.16A58.07,58.07,0,0,0,127.16,229.64Z" transform="translate(0 -0.1)"/><path class="cls-8" d="M173.82,306l-28.33,28.33A54.81,54.81,0,0,0,173.82,306Z" transform="translate(0 -0.1)"/><path d="M101.85,234.06,73.52,262.39A53.69,53.69,0,0,0,70.14,273l42.31-42.31A54.35,54.35,0,0,0,101.85,234.06Z" transform="translate(0 -0.1)"/><path d="M123.67,229.52c-1.26,0-2.51.06-3.75.14l-50.8,50.8C69,281.7,69,283,69,284.21s0,2.34.12,3.49l58.06-58.06C126,229.57,124.84,229.52,123.67,229.52Z" transform="translate(0 -0.1)"/><path d="M132.94,230.32,69.78,293.48a53.8,53.8,0,0,0,1.34,5.87l67.69-67.69A54.89,54.89,0,0,0,132.94,230.32Z" transform="translate(0 -0.1)"/><path d="M143.63,233.3,72.75,304.17a54.47,54.47,0,0,0,2.25,5l73.61-73.61A52.94,52.94,0,0,0,143.63,233.3Z" transform="translate(0 -0.1)"/><path d="M152.72,237.88,77.34,313.26q1.38,2.21,3,4.26L157,240.84Q154.93,239.27,152.72,237.88Z" transform="translate(0 -0.1)"/><path d="M160.5,243.78,83.24,321c1.14,1.26,2.35,2.46,3.61,3.61l77.25-77.26C163,246.13,161.75,244.92,160.5,243.78Z" transform="translate(0 -0.1)"/><path d="M167,250.91,90.37,327.58q2,1.57,4.25,3L170,255.16Q168.62,253,167,250.91Z" transform="translate(0 -0.1)"/><path d="M172.34,259.28l-73.6,73.6a54.28,54.28,0,0,0,5,2.25l70.88-70.88A54.28,54.28,0,0,0,172.34,259.28Z" transform="translate(0 -0.1)"/><path d="M176.22,269.07l-67.69,67.69a57.46,57.46,0,0,0,5.87,1.35L177.56,275A54.52,54.52,0,0,0,176.22,269.07Z" transform="translate(0 -0.1)"/><path d="M120.18,338.78c1.16.07,2.32.12,3.49.12s2.51,0,3.75-.14l50.8-50.8c.08-1.24.14-2.49.14-3.75s-.05-2.33-.12-3.48Z" transform="translate(0 -0.1)"/><path d="M145.49,334.36,173.82,306a54.16,54.16,0,0,0,3.39-10.6l-42.32,42.32A54.16,54.16,0,0,0,145.49,334.36Z" transform="translate(0 -0.1)"/><path class="cls-8" d="M71.12,269.07l67.69,67.69q2.46-.7,4.82-1.63L72.75,264.25C72.14,265.82,71.59,267.43,71.12,269.07Z" transform="translate(0 -0.1)"/><path class="cls-8" d="M70.14,295.43l42.31,42.32a55.48,55.48,0,0,0,7.47,1L69.12,288A53.93,53.93,0,0,0,70.14,295.43Z" transform="translate(0 -0.1)"/><path class="cls-8" d="M177.21,273l-42.32-42.31a55.49,55.49,0,0,0-7.47-1l50.8,50.8A55.7,55.7,0,0,0,177.21,273Z" transform="translate(0 -0.1)"/><path class="cls-8" d="M101.85,334.36,73.52,306A54.81,54.81,0,0,0,101.85,334.36Z" transform="translate(0 -0.1)"/><path class="cls-8" d="M75,259.28l73.61,73.6c1.4-.72,2.78-1.5,4.11-2.34L77.34,255.16Q76.08,257.17,75,259.28Z" transform="translate(0 -0.1)"/><path class="cls-8" d="M80.3,250.91,157,327.58c1.21-.93,2.39-1.9,3.52-2.93L83.24,247.39C82.21,248.52,81.23,249.7,80.3,250.91Z" transform="translate(0 -0.1)"/><path class="cls-8" d="M114.4,230.32l63.16,63.16a52.41,52.41,0,0,0,.68-5.78l-58.06-58.06A58.07,58.07,0,0,0,114.4,230.32Z" transform="translate(0 -0.1)"/><path class="cls-8" d="M103.71,233.3l70.88,70.87c.61-1.57,1.16-3.18,1.63-4.82l-67.69-67.69Q106.07,232.37,103.71,233.3Z" transform="translate(0 -0.1)"/><path class="cls-8" d="M94.62,237.88,170,313.26q1.26-2,2.34-4.11l-73.6-73.61Q96.63,236.62,94.62,237.88Z" transform="translate(0 -0.1)"/><path class="cls-8" d="M86.85,243.78,164.1,321c1-1.13,2-2.31,2.94-3.52L90.37,240.84C89.15,241.78,88,242.75,86.85,243.78Z" transform="translate(0 -0.1)"/><path class="cls-8" d="M69.1,280.73l58.06,58a55.24,55.24,0,0,0,5.78-.67L69.78,275A54.63,54.63,0,0,0,69.1,280.73Z" transform="translate(0 -0.1)"/><path class="cls-8" d="M145.49,234.06l28.33,28.33A54.81,54.81,0,0,0,145.49,234.06Z" transform="translate(0 -0.1)"/><path d="M73.52,306l28.33,28.33a54.38,54.38,0,0,0,10.6,3.39L70.14,295.43A53.48,53.48,0,0,0,73.52,306Z" transform="translate(0 -0.1)"/><path d="M69,284.21c0,1.26.06,2.51.14,3.75l50.8,50.8c1.24.09,2.49.14,3.75.14s2.33,0,3.49-.12l-58.06-58C69,281.88,69,283,69,284.21Z" transform="translate(0 -0.1)"/><path d="M69.78,275l63.16,63.16a57.46,57.46,0,0,0,5.87-1.35L71.12,269.07A54.52,54.52,0,0,0,69.78,275Z" transform="translate(0 -0.1)"/><path d="M72.75,264.25l70.88,70.88q2.55-1,5-2.25L75,259.28A54.28,54.28,0,0,0,72.75,264.25Z" transform="translate(0 -0.1)"/><path d="M77.34,255.16l75.38,75.38q2.21-1.38,4.26-3L80.3,250.91Q78.72,253,77.34,255.16Z" transform="translate(0 -0.1)"/><path d="M83.24,247.39l77.26,77.26c1.25-1.15,2.46-2.35,3.6-3.61L86.85,243.78C85.59,244.92,84.38,246.13,83.24,247.39Z" transform="translate(0 -0.1)"/><path d="M90.37,240.84,167,317.52q1.58-2.06,3-4.26L94.62,237.88Q92.42,239.26,90.37,240.84Z" transform="translate(0 -0.1)"/><path d="M98.74,235.54l73.6,73.61a54.47,54.47,0,0,0,2.25-5L103.71,233.3A51.64,51.64,0,0,0,98.74,235.54Z" transform="translate(0 -0.1)"/><path d="M108.53,231.66l67.69,67.69a53.8,53.8,0,0,0,1.34-5.87L114.4,230.32A54.89,54.89,0,0,0,108.53,231.66Z" transform="translate(0 -0.1)"/><path d="M178.24,287.7c.07-1.15.12-2.32.12-3.49s-.06-2.51-.14-3.75l-50.8-50.8c-1.24-.08-2.49-.14-3.75-.14s-2.33,0-3.49.12Z" transform="translate(0 -0.1)"/><path d="M173.82,262.39l-28.33-28.33a54.14,54.14,0,0,0-10.6-3.38L177.21,273A54.38,54.38,0,0,0,173.82,262.39Z" transform="translate(0 -0.1)"/><circle class="cls-7" cx="388.58" cy="284.11" r="54.69"/><path class="cls-8" d="M403.73,231.66,336,299.35q.71,2.46,1.64,4.82l70.87-70.87Q406.19,232.37,403.73,231.66Z" transform="translate(0 -0.1)"/><path class="cls-8" d="M377.36,230.68,335.05,273a55.71,55.71,0,0,0-1,7.47l50.8-50.8A55.71,55.71,0,0,0,377.36,230.68Z" transform="translate(0 -0.1)"/><path class="cls-8" d="M399.8,337.75l42.32-42.32a53.92,53.92,0,0,0,1-7.47l-50.79,50.8A55.33,55.33,0,0,0,399.8,337.75Z" transform="translate(0 -0.1)"/><path class="cls-8" d="M338.43,262.39l28.33-28.33A54.88,54.88,0,0,0,338.43,262.39Z" transform="translate(0 -0.1)"/><path class="cls-8" d="M413.52,235.54l-73.61,73.61c.73,1.4,1.5,2.78,2.34,4.11l75.38-75.38Q415.64,236.62,413.52,235.54Z" transform="translate(0 -0.1)"/><path class="cls-8" d="M421.89,240.84l-76.67,76.68c.93,1.21,1.9,2.39,2.93,3.52l77.26-77.26C424.28,242.75,423.1,241.78,421.89,240.84Z" transform="translate(0 -0.1)"/><path class="cls-8" d="M442.48,275l-63.16,63.16a54.63,54.63,0,0,0,5.78.67l58-58A54.63,54.63,0,0,0,442.48,275Z" transform="translate(0 -0.1)"/><path class="cls-8" d="M439.5,264.25l-70.88,70.88q2.36.93,4.82,1.63l67.69-67.69Q440.43,266.61,439.5,264.25Z" transform="translate(0 -0.1)"/><path class="cls-8" d="M434.91,255.16l-75.38,75.38q2,1.26,4.12,2.34l73.6-73.6Q436.17,257.17,434.91,255.16Z" transform="translate(0 -0.1)"/><path class="cls-8" d="M429,247.39l-77.26,77.26c1.13,1,2.31,2,3.52,2.93L432,250.91C431,249.7,430.05,248.52,429,247.39Z" transform="translate(0 -0.1)"/><path class="cls-8" d="M392.07,229.64,334,287.7a57.72,57.72,0,0,0,.68,5.78l63.16-63.16A57.72,57.72,0,0,0,392.07,229.64Z" transform="translate(0 -0.1)"/><path class="cls-8" d="M438.74,306,410.4,334.36A54.87,54.87,0,0,0,438.74,306Z" transform="translate(0 -0.1)"/><path d="M366.76,234.06l-28.33,28.33a54.35,54.35,0,0,0-3.38,10.6l42.31-42.31A54.35,54.35,0,0,0,366.76,234.06Z" transform="translate(0 -0.1)"/><path d="M388.58,229.52c-1.26,0-2.51.06-3.75.14L334,280.46c-.08,1.24-.14,2.49-.14,3.75s.05,2.34.12,3.49l58.06-58.06C390.92,229.57,389.76,229.52,388.58,229.52Z" transform="translate(0 -0.1)"/><path d="M397.85,230.32l-63.16,63.16a53.8,53.8,0,0,0,1.34,5.87l67.7-67.69A54.52,54.52,0,0,0,397.85,230.32Z" transform="translate(0 -0.1)"/><path d="M408.54,233.3l-70.87,70.87a51.81,51.81,0,0,0,2.24,5l73.61-73.61A50.73,50.73,0,0,0,408.54,233.3Z" transform="translate(0 -0.1)"/><path d="M417.63,237.88l-75.38,75.38q1.38,2.21,3,4.26l76.67-76.68Q419.84,239.27,417.63,237.88Z" transform="translate(0 -0.1)"/><path d="M425.41,243.78,348.15,321q1.73,1.89,3.61,3.61L429,247.39C427.87,246.13,426.67,244.92,425.41,243.78Z" transform="translate(0 -0.1)"/><path d="M432,250.91l-76.67,76.67q2.06,1.57,4.25,3l75.38-75.38Q433.53,253,432,250.91Z" transform="translate(0 -0.1)"/><path d="M437.25,259.28l-73.6,73.6a54.28,54.28,0,0,0,5,2.25l70.88-70.88A54.28,54.28,0,0,0,437.25,259.28Z" transform="translate(0 -0.1)"/><path d="M441.13,269.07l-67.69,67.69a57,57,0,0,0,5.88,1.35L442.48,275A52.26,52.26,0,0,0,441.13,269.07Z" transform="translate(0 -0.1)"/><path d="M385.1,338.78c1.15.07,2.31.12,3.48.12s2.51,0,3.76-.14L443.13,288c.09-1.24.14-2.49.14-3.75s0-2.33-.12-3.48Z" transform="translate(0 -0.1)"/><path d="M410.4,334.36,438.74,306a54.14,54.14,0,0,0,3.38-10.6L399.8,337.75A54.16,54.16,0,0,0,410.4,334.36Z" transform="translate(0 -0.1)"/><path class="cls-8" d="M336,269.07l67.7,67.69q2.46-.7,4.81-1.63l-70.87-70.88Q336.74,266.61,336,269.07Z" transform="translate(0 -0.1)"/><path class="cls-8" d="M335.05,295.43l42.31,42.32a55.7,55.7,0,0,0,7.47,1L334,288A55.49,55.49,0,0,0,335.05,295.43Z" transform="translate(0 -0.1)"/><path class="cls-8" d="M442.12,273,399.8,230.68a55.34,55.34,0,0,0-7.46-1l50.79,50.8A54.13,54.13,0,0,0,442.12,273Z" transform="translate(0 -0.1)"/><path class="cls-8" d="M366.76,334.36,338.43,306A54.88,54.88,0,0,0,366.76,334.36Z" transform="translate(0 -0.1)"/><path class="cls-8" d="M339.91,259.28l73.61,73.6q2.12-1.08,4.11-2.34l-75.38-75.38C341.41,256.5,340.64,257.87,339.91,259.28Z" transform="translate(0 -0.1)"/><path class="cls-8" d="M345.22,250.91l76.67,76.67c1.21-.93,2.39-1.9,3.52-2.93l-77.26-77.26C347.12,248.52,346.15,249.7,345.22,250.91Z" transform="translate(0 -0.1)"/><path class="cls-8" d="M379.32,230.32l63.16,63.16a54.93,54.93,0,0,0,.67-5.78l-58-58.06A57.38,57.38,0,0,0,379.32,230.32Z" transform="translate(0 -0.1)"/><path class="cls-8" d="M368.62,233.3l70.88,70.87q.93-2.35,1.63-4.82l-67.69-67.69Q371,232.37,368.62,233.3Z" transform="translate(0 -0.1)"/><path class="cls-8" d="M359.53,237.88l75.38,75.38q1.26-2,2.34-4.11l-73.6-73.61Q361.54,236.62,359.53,237.88Z" transform="translate(0 -0.1)"/><path class="cls-8" d="M351.76,243.78,429,321c1-1.13,2-2.31,2.93-3.52l-76.67-76.68C354.07,241.78,352.89,242.75,351.76,243.78Z" transform="translate(0 -0.1)"/><path class="cls-8" d="M334,280.73l58.06,58a54.93,54.93,0,0,0,5.78-.67L334.69,275A57.38,57.38,0,0,0,334,280.73Z" transform="translate(0 -0.1)"/><path class="cls-8" d="M410.4,234.06l28.34,28.33A54.87,54.87,0,0,0,410.4,234.06Z" transform="translate(0 -0.1)"/><path d="M338.43,306l28.33,28.33a54.38,54.38,0,0,0,10.6,3.39l-42.31-42.32A54.14,54.14,0,0,0,338.43,306Z" transform="translate(0 -0.1)"/><path d="M333.89,284.21c0,1.26.06,2.51.14,3.75l50.8,50.8c1.24.09,2.49.14,3.75.14s2.34,0,3.49-.12l-58.06-58C333.94,281.88,333.89,283,333.89,284.21Z" transform="translate(0 -0.1)"/><path d="M334.69,275l63.16,63.16a57,57,0,0,0,5.88-1.35L336,269.07A54.52,54.52,0,0,0,334.69,275Z" transform="translate(0 -0.1)"/><path d="M337.67,264.25l70.87,70.88a53.27,53.27,0,0,0,5-2.25l-73.61-73.6A51.64,51.64,0,0,0,337.67,264.25Z" transform="translate(0 -0.1)"/><path d="M342.25,255.16l75.38,75.38q2.21-1.38,4.26-3l-76.67-76.67Q343.63,253,342.25,255.16Z" transform="translate(0 -0.1)"/><path d="M348.15,247.39l77.26,77.26q1.89-1.72,3.61-3.61l-77.26-77.26C350.5,244.92,349.3,246.13,348.15,247.39Z" transform="translate(0 -0.1)"/><path d="M355.28,240.84,432,317.52q1.57-2.06,3-4.26l-75.38-75.38Q357.34,239.26,355.28,240.84Z" transform="translate(0 -0.1)"/><path d="M363.65,235.54l73.6,73.61a54.47,54.47,0,0,0,2.25-5L368.62,233.3A51.64,51.64,0,0,0,363.65,235.54Z" transform="translate(0 -0.1)"/><path d="M373.44,231.66l67.69,67.69a51.6,51.6,0,0,0,1.35-5.87l-63.16-63.16A54.52,54.52,0,0,0,373.44,231.66Z" transform="translate(0 -0.1)"/><path d="M443.15,287.7c.08-1.15.12-2.32.12-3.49s0-2.51-.14-3.75l-50.79-50.8c-1.25-.08-2.49-.14-3.76-.14s-2.33,0-3.48.12Z" transform="translate(0 -0.1)"/><path d="M438.74,262.39,410.4,234.06a54.14,54.14,0,0,0-10.6-3.38L442.12,273A54.35,54.35,0,0,0,438.74,262.39Z" transform="translate(0 -0.1)"/></svg>